<svg xmlns="http://www.w3.org/2000/svg" xmlns:xlink="http://www.w3.org/1999/xlink" width="51" zoomAndPan="magnify" viewBox="0 0 38.25 34.5" height="46" preserveAspectRatio="xMidYMid meet" version="1.0"><defs><clipPath id="1c23b5daab"><path d="M 1.839844 0.0859375 L 35.675781 0.0859375 L 35.675781 33.921875 L 1.839844 33.921875 Z M 1.839844 0.0859375 " clip-rule="nonzero"/></clipPath><clipPath id="67a406a959"><path d="M 8 0.0859375 L 11 0.0859375 L 11 5 L 8 5 Z M 8 0.0859375 " clip-rule="nonzero"/></clipPath></defs><g clip-path="url(#1c23b5daab)"><path fill="#405925" d="M 35.195312 8.960938 L 33.011719 8.648438 C 32.667969 8.601562 32.570312 8.320312 32.546875 8.234375 C 32.523438 8.148438 32.476562 7.855469 32.753906 7.644531 L 34.519531 6.324219 C 34.636719 6.234375 34.714844 6.101562 34.738281 5.953125 C 34.757812 5.804688 34.71875 5.65625 34.628906 5.539062 L 32.609375 2.84375 C 32.519531 2.722656 32.386719 2.644531 32.242188 2.625 C 32.089844 2.601562 31.945312 2.640625 31.824219 2.730469 L 30.0625 4.054688 C 29.78125 4.261719 29.511719 4.132812 29.4375 4.085938 C 29.363281 4.042969 29.121094 3.871094 29.167969 3.527344 L 29.480469 1.34375 C 29.523438 1.035156 29.3125 0.75 29.003906 0.707031 L 25.671875 0.234375 C 25.523438 0.210938 25.375 0.25 25.253906 0.339844 C 25.136719 0.429688 25.058594 0.5625 25.035156 0.707031 L 24.722656 2.890625 C 24.675781 3.234375 24.394531 3.332031 24.308594 3.355469 C 24.222656 3.378906 23.929688 3.425781 23.71875 3.148438 L 22.398438 1.382812 C 22.308594 1.265625 22.175781 1.1875 22.027344 1.164062 C 21.882812 1.144531 21.730469 1.183594 21.613281 1.273438 L 19.925781 2.535156 C 19.152344 2.457031 18.378906 2.457031 17.628906 2.539062 C 12.652344 3.085938 8.699219 7.109375 8.230469 12.097656 C 8.214844 12.253906 8.207031 12.414062 8.199219 12.570312 L 8.03125 12.570312 C 7.765625 12.570312 7.535156 12.757812 7.480469 13.015625 L 7.09375 14.859375 L 5.542969 13.792969 C 5.320312 13.636719 5.019531 13.667969 4.828125 13.859375 L 3.144531 15.542969 C 2.953125 15.734375 2.925781 16.035156 3.082031 16.257812 L 4.148438 17.808594 L 2.304688 18.195312 C 2.042969 18.25 1.859375 18.480469 1.859375 18.746094 L 1.859375 20.988281 C 1.859375 21.253906 2.042969 21.484375 2.304688 21.539062 L 4.148438 21.925781 L 3.082031 23.476562 C 2.925781 23.699219 2.953125 24 3.144531 24.191406 L 4.828125 25.875 C 5.019531 26.066406 5.320312 26.09375 5.542969 25.941406 L 7.09375 24.871094 L 7.480469 26.714844 C 7.535156 26.976562 7.765625 27.160156 8.03125 27.160156 L 10.277344 27.160156 C 10.542969 27.160156 10.769531 26.976562 10.824219 26.714844 L 11.214844 24.871094 L 12.765625 25.941406 C 12.984375 26.09375 13.289062 26.066406 13.480469 25.875 L 14.351562 25 L 14.351562 26.601562 C 14.351562 27.425781 14.808594 28.144531 15.472656 28.53125 L 15.472656 31.652344 C 15.472656 32.886719 16.480469 33.894531 17.71875 33.894531 L 19.964844 33.894531 C 21.203125 33.894531 22.207031 32.886719 22.207031 31.652344 L 22.207031 28.53125 C 22.875 28.144531 23.332031 27.425781 23.332031 26.601562 L 23.332031 24.378906 C 23.332031 23.472656 23.816406 22.613281 24.628906 22.089844 C 25.09375 21.789062 25.535156 21.449219 25.949219 21.078125 L 25.199219 20.242188 C 24.832031 20.574219 24.433594 20.878906 24.019531 21.148438 C 22.886719 21.878906 22.207031 23.089844 22.207031 24.378906 L 22.207031 26.601562 C 22.207031 27.21875 21.703125 27.722656 21.085938 27.722656 L 16.597656 27.722656 C 15.976562 27.722656 15.472656 27.21875 15.472656 26.601562 L 15.472656 24.332031 C 15.472656 23.066406 14.808594 21.882812 13.695312 21.164062 C 10.671875 19.226562 9.007812 15.792969 9.347656 12.203125 C 9.765625 7.742188 13.304688 4.144531 17.753906 3.652344 C 18.070312 3.617188 18.394531 3.601562 18.722656 3.601562 C 18.714844 3.621094 18.703125 3.640625 18.699219 3.660156 C 18.679688 3.808594 18.71875 3.957031 18.804688 4.078125 L 20.128906 5.839844 C 20.335938 6.121094 20.207031 6.390625 20.164062 6.464844 C 20.117188 6.539062 19.941406 6.78125 19.601562 6.734375 L 17.417969 6.421875 C 17.109375 6.378906 16.828125 6.589844 16.78125 6.898438 L 16.304688 10.230469 C 16.285156 10.378906 16.324219 10.527344 16.414062 10.648438 C 16.503906 10.765625 16.636719 10.84375 16.78125 10.867188 L 18.964844 11.179688 C 19.308594 11.226562 19.40625 11.507812 19.429688 11.59375 C 19.449219 11.679688 19.5 11.972656 19.222656 12.183594 L 17.457031 13.503906 C 17.210938 13.691406 17.160156 14.042969 17.347656 14.289062 L 19.367188 16.984375 C 19.550781 17.230469 19.902344 17.28125 20.152344 17.097656 L 21.917969 15.773438 C 22.195312 15.5625 22.460938 15.695312 22.539062 15.738281 C 22.613281 15.785156 22.855469 15.957031 22.808594 16.300781 L 22.496094 18.484375 C 22.453125 18.789062 22.664062 19.074219 22.972656 19.121094 L 26.304688 19.59375 C 26.332031 19.597656 26.359375 19.601562 26.382812 19.601562 C 26.503906 19.601562 26.625 19.5625 26.722656 19.488281 C 26.839844 19.398438 26.917969 19.265625 26.941406 19.121094 L 27.253906 16.9375 C 27.300781 16.59375 27.582031 16.496094 27.667969 16.472656 C 27.753906 16.449219 28.046875 16.402344 28.257812 16.679688 L 29.578125 18.441406 C 29.765625 18.691406 30.117188 18.742188 30.363281 18.554688 L 33.058594 16.535156 C 33.304688 16.347656 33.355469 15.996094 33.171875 15.75 L 31.847656 13.984375 C 31.640625 13.707031 31.769531 13.4375 31.8125 13.363281 C 31.859375 13.289062 32.03125 13.042969 32.375 13.09375 L 34.558594 13.40625 C 34.867188 13.449219 35.148438 13.238281 35.195312 12.929688 L 35.667969 9.597656 C 35.691406 9.449219 35.652344 9.300781 35.5625 9.179688 C 35.472656 9.0625 35.339844 8.984375 35.195312 8.960938 Z M 9.175781 17.625 C 9.6875 18.730469 10.390625 19.746094 11.257812 20.625 C 10.941406 21.5 10.101562 22.109375 9.152344 22.109375 C 7.917969 22.109375 6.910156 21.105469 6.910156 19.867188 C 6.910156 18.628906 7.917969 17.621094 9.152344 17.621094 C 9.160156 17.621094 9.167969 17.625 9.175781 17.625 Z M 19.964844 32.773438 L 17.71875 32.773438 C 17.101562 32.773438 16.597656 32.269531 16.597656 31.652344 L 16.597656 31.089844 L 21.085938 31.089844 L 21.085938 31.652344 C 21.085938 32.269531 20.582031 32.773438 19.964844 32.773438 Z M 21.085938 28.84375 L 21.085938 29.96875 L 16.597656 29.96875 L 16.597656 28.84375 Z M 14.21875 23.546875 L 13.015625 24.75 L 11.851562 23.945312 C 11.539062 23.734375 11.148438 23.6875 10.796875 23.828125 C 10.445312 23.96875 10.191406 24.273438 10.113281 24.640625 L 9.820312 26.039062 L 8.488281 26.039062 L 8.195312 24.640625 C 8.117188 24.273438 7.859375 23.96875 7.511719 23.828125 C 7.164062 23.691406 6.769531 23.734375 6.457031 23.949219 L 5.292969 24.75 L 4.269531 23.730469 L 5.074219 22.5625 C 5.289062 22.253906 5.332031 21.859375 5.191406 21.511719 C 5.054688 21.160156 4.75 20.90625 4.382812 20.828125 L 2.984375 20.535156 L 2.984375 19.199219 L 4.382812 18.90625 C 4.75 18.828125 5.054688 18.574219 5.191406 18.226562 C 5.332031 17.875 5.289062 17.480469 5.074219 17.171875 L 4.269531 16.007812 L 5.292969 14.984375 L 6.457031 15.789062 C 6.769531 16 7.164062 16.042969 7.511719 15.90625 C 7.859375 15.765625 8.117188 15.460938 8.195312 15.09375 L 8.292969 14.625 C 8.382812 15.277344 8.53125 15.914062 8.738281 16.53125 C 7.078125 16.734375 5.785156 18.152344 5.785156 19.867188 C 5.785156 21.722656 7.296875 23.234375 9.152344 23.234375 C 10.425781 23.234375 11.558594 22.5 12.128906 21.410156 C 12.433594 21.65625 12.75 21.894531 13.089844 22.109375 C 13.636719 22.464844 14.027344 22.972656 14.21875 23.546875 Z M 34.160156 12.214844 L 32.535156 11.984375 C 31.84375 11.882812 31.203125 12.195312 30.847656 12.792969 C 30.496094 13.386719 30.535156 14.105469 30.949219 14.660156 L 31.9375 15.972656 L 30.140625 17.320312 L 29.15625 16.007812 C 28.738281 15.449219 28.0625 15.210938 27.390625 15.386719 C 26.71875 15.558594 26.238281 16.089844 26.140625 16.777344 L 25.910156 18.402344 L 23.6875 18.085938 L 23.917969 16.460938 C 24.019531 15.773438 23.707031 15.128906 23.109375 14.773438 C 22.515625 14.421875 21.796875 14.457031 21.242188 14.875 L 19.929688 15.863281 L 18.582031 14.066406 L 19.894531 13.082031 C 20.453125 12.664062 20.691406 11.988281 20.515625 11.316406 C 20.34375 10.644531 19.8125 10.164062 19.125 10.066406 L 17.496094 9.835938 L 17.816406 7.613281 L 19.441406 7.84375 C 20.132812 7.941406 20.773438 7.632812 21.128906 7.035156 C 21.480469 6.4375 21.445312 5.722656 21.027344 5.167969 L 20.039062 3.851562 L 21.835938 2.507812 L 22.820312 3.820312 C 23.238281 4.375 23.914062 4.613281 24.585938 4.441406 C 25.257812 4.269531 25.738281 3.734375 25.835938 3.050781 L 26.066406 1.421875 L 28.289062 1.738281 L 28.058594 3.367188 C 27.960938 4.054688 28.269531 4.699219 28.867188 5.054688 C 29.460938 5.40625 30.179688 5.367188 30.734375 4.953125 L 32.050781 3.964844 L 33.394531 5.761719 L 32.082031 6.746094 C 31.527344 7.164062 31.289062 7.839844 31.460938 8.511719 C 31.632812 9.183594 32.167969 9.664062 32.851562 9.761719 L 34.480469 9.992188 Z M 34.160156 12.214844 " fill-opacity="1" fill-rule="nonzero"/></g><path fill="#405925" d="M 25.988281 5.425781 C 23.511719 5.425781 21.5 7.4375 21.5 9.914062 C 21.5 12.390625 23.511719 14.402344 25.988281 14.402344 C 28.464844 14.402344 30.476562 12.390625 30.476562 9.914062 C 30.476562 7.4375 28.464844 5.425781 25.988281 5.425781 Z M 25.988281 13.28125 C 24.132812 13.28125 22.621094 11.769531 22.621094 9.914062 C 22.621094 8.058594 24.132812 6.546875 25.988281 6.546875 C 27.84375 6.546875 29.355469 8.058594 29.355469 9.914062 C 29.355469 11.769531 27.84375 13.28125 25.988281 13.28125 Z M 25.988281 13.28125 " fill-opacity="1" fill-rule="nonzero"/><path fill="#405925" d="M 18.28125 24.917969 L 19.402344 24.917969 L 19.402344 26.601562 L 18.28125 26.601562 Z M 18.28125 24.917969 " fill-opacity="1" fill-rule="nonzero"/><path fill="#405925" d="M 16.386719 19.40625 C 13.789062 18.386719 12.109375 15.925781 12.109375 13.132812 C 12.109375 10.808594 13.285156 8.679688 15.253906 7.433594 L 14.652344 6.484375 C 12.355469 7.9375 10.984375 10.421875 10.984375 13.132812 C 10.984375 16.390625 12.945312 19.261719 15.976562 20.449219 C 17.375 21 18.28125 22.3125 18.28125 23.792969 L 19.402344 23.792969 C 19.402344 21.847656 18.21875 20.121094 16.386719 19.40625 Z M 16.386719 19.40625 " fill-opacity="1" fill-rule="nonzero"/><path fill="#405925" d="M 29.503906 20.988281 L 33.429688 20.988281 L 33.429688 22.109375 L 29.503906 22.109375 Z M 29.503906 20.988281 " fill-opacity="1" fill-rule="nonzero"/><path fill="#405925" d="M 28.582031 24.785156 L 29.300781 23.925781 L 32.667969 26.730469 L 31.949219 27.589844 Z M 28.582031 24.785156 " fill-opacity="1" fill-rule="nonzero"/><path fill="#405925" d="M 26.136719 25.476562 L 27.257812 25.476562 L 27.257812 29.40625 L 26.136719 29.40625 Z M 26.136719 25.476562 " fill-opacity="1" fill-rule="nonzero"/><path fill="#405925" d="M 2.433594 9.78125 L 6.921875 8.660156 L 7.191406 9.75 L 2.703125 10.871094 Z M 2.433594 9.78125 " fill-opacity="1" fill-rule="nonzero"/><path fill="#405925" d="M 3.363281 4.050781 L 4.015625 3.136719 L 7.945312 5.941406 L 7.292969 6.855469 Z M 3.363281 4.050781 " fill-opacity="1" fill-rule="nonzero"/><g clip-path="url(#67a406a959)"><path fill="#405925" d="M 8.171875 0.363281 L 9.257812 0.0859375 L 10.40625 4.574219 L 9.320312 4.855469 Z M 8.171875 0.363281 " fill-opacity="1" fill-rule="nonzero"/></g></svg>